<?xml version="1.0" encoding="iso-8859-1"?>
<!-- Generator: Adobe Illustrator 19.0.0, SVG Export Plug-In . SVG Version: 6.00 Build 0)  -->
<svg version="1.1" id="Capa_1" xmlns="http://www.w3.org/2000/svg" xmlns:xlink="http://www.w3.org/1999/xlink" x="0px" y="0px"
	 viewBox="0 0 511.888 511.888" style="enable-background:new 0 0 511.888 511.888;" xml:space="preserve">
<g>
	<path style="fill:#A4C2F7;" d="M254.471,109.493c19.644-48.014,66.184-79.55,118.059-79.999c71.123,0,122.34,60.84,128.779,133.349
		c1.854,16.914,0.437,34.027-4.172,50.406c-10.673,43.748-34.353,83.235-67.918,113.256L254.471,482.407L82.669,326.494
		c-33.565-30.021-57.244-69.508-67.918-113.256c-4.61-16.379-6.026-33.492-4.172-50.406C17.017,90.324,68.235,29.484,139.358,29.484
		C190.5,30.041,236.124,61.752,254.471,109.493z"/>
	<path style="fill:#E3E7F2;" d="M252.083,109.493c19.874-47.091,39.672-79.999,92.476-79.999c71.123,0,122.34,60.84,128.779,133.349
		c1.854,16.914,0.437,34.027-4.173,50.406c-10.673,43.748-34.353,83.235-67.918,113.256L252.083,482.407L80.281,326.494
		c-32.427-30.302-54.756-69.839-63.962-113.256c-4.61-16.379-6.026-33.492-4.172-50.406C18.586,90.324,65.847,29.483,136.97,29.483
		C188.113,30.041,233.736,61.751,252.083,109.493z"/>
	<path style="fill:#FFFFFF;" d="M12.146,162.843c6.439-72.51,57.656-133.351,128.78-133.351c4.646,0.029,9.286,0.316,13.9,0.861
		C91.097,37.788,46.123,95.218,40.117,162.843c-1.854,16.913-0.437,34.025,4.173,50.404c10.674,43.748,34.353,83.236,67.918,113.257
		l148.056,154.743l-1.278,1.159L84.237,326.504c-33.565-30.021-57.245-69.508-67.918-113.257
		C11.709,196.869,10.293,179.757,12.146,162.843z"/>
	<g>
		<path style="fill:#428DFF;" d="M254.473,492.252c-2.447,0.002-4.806-0.91-6.615-2.558L76.05,333.78
			c-35.102-31.304-59.829-72.564-70.885-118.279c-4.789-17.551-6.266-35.841-4.356-53.933
			C8.281,79.309,66.502,19.636,139.358,19.636c47.84,0.254,91.842,26.234,115.173,68c24.595-41.883,69.43-67.716,118-67.99
			c72.856,0,131.077,59.673,138.548,141.932c1.91,18.092,0.433,36.382-4.356,53.933c-11.058,45.717-35.784,86.979-70.885,118.289
			L261.031,489.752C259.226,491.362,256.892,492.252,254.473,492.252z M139.358,39.329c-62.538,0-112.567,52.308-118.971,124.375
			c-0.029,0.333-0.077,0.663-0.144,0.99c-1.473,15.55-0.084,31.239,4.096,46.288c10.141,41.835,32.796,79.583,64.942,108.211
			l165.25,149.971l168.135-150.01c32.119-28.622,54.753-66.352,64.885-108.163c4.194-15.067,5.577-30.778,4.077-46.346
			c-6.529-73-56.567-125.308-119.096-125.308c-47.915,0.455-90.879,29.618-108.99,73.981c-1.537,3.648-5.109,6.019-9.067,6.019
			c-3.958,0-7.531-2.372-9.067-6.019C228.49,69.308,186.503,40.013,139.358,39.329z"/>
		<path style="fill:#428DFF;" d="M68.867,187.79c-2.612,0.001-5.117-1.035-6.964-2.882c-1.847-1.847-2.884-4.352-2.882-6.964
			c0.064-54.352,44.109-98.398,98.462-98.462c5.438,0,9.846,4.408,9.846,9.846c0,5.438-4.408,9.846-9.846,9.846
			c-43.482,0.05-78.719,35.287-78.769,78.769c0.001,2.612-1.035,5.117-2.882,6.964C73.984,186.755,71.479,187.792,68.867,187.79z"/>
	</g>
</g>
<g>
</g>
<g>
</g>
<g>
</g>
<g>
</g>
<g>
</g>
<g>
</g>
<g>
</g>
<g>
</g>
<g>
</g>
<g>
</g>
<g>
</g>
<g>
</g>
<g>
</g>
<g>
</g>
<g>
</g>
</svg>
