<?xml version="1.0" encoding="iso-8859-1"?>
<!-- Generator: Adobe Illustrator 19.0.0, SVG Export Plug-In . SVG Version: 6.00 Build 0)  -->
<svg version="1.1" id="Capa_1" xmlns="http://www.w3.org/2000/svg" xmlns:xlink="http://www.w3.org/1999/xlink" x="0px" y="0px"
	 viewBox="0 0 512 512" style="enable-background:new 0 0 512 512;" xml:space="preserve">
<g>
	<circle style="fill:#A4C2F7;" cx="443.733" cy="256" r="59.733"/>
	<ellipse style="fill:#E3E7F2;" cx="430.933" cy="256" rx="46.933" ry="59.733"/>
	<path style="fill:#FFFFFF;" d="M443.733,315.733c2.396-0.013,4.789-0.17,7.167-0.47c-23.258-3.548-41.299-28.705-41.299-59.263
		c0-30.56,18.042-55.717,41.303-59.264c-22.035-2.671-43.733,7.101-56.338,25.371s-14.036,42.024-3.716,61.675
		C401.169,303.433,421.537,315.739,443.733,315.733L443.733,315.733z"/>
	<circle style="fill:#A4C2F7;" cx="256" cy="256" r="59.733"/>
	<ellipse style="fill:#E3E7F2;" cx="243.2" cy="256" rx="46.933" ry="59.733"/>
	<path style="fill:#FFFFFF;" d="M256.001,315.733c2.396-0.013,4.789-0.17,7.167-0.47c-23.258-3.548-41.299-28.705-41.299-59.263
		c0-30.56,18.042-55.717,41.303-59.264c-22.035-2.671-43.733,7.101-56.338,25.371c-12.605,18.27-14.036,42.024-3.716,61.675
		C213.437,303.433,233.804,315.739,256.001,315.733L256.001,315.733z"/>
	<circle style="fill:#A4C2F7;" cx="68.267" cy="256" r="59.733"/>
	<ellipse style="fill:#E3E7F2;" cx="55.467" cy="256" rx="46.933" ry="59.733"/>
	<path style="fill:#FFFFFF;" d="M68.267,315.733c2.396-0.013,4.789-0.17,7.167-0.469c-23.258-3.548-41.299-28.705-41.299-59.263
		c0-30.56,18.042-55.717,41.303-59.264c-22.036-2.672-43.735,7.099-56.34,25.369S5.06,264.131,15.38,283.783
		C25.701,303.435,46.07,315.74,68.267,315.733L68.267,315.733z"/>
	<g>
		<path style="fill:#428DFF;" d="M68.267,324.267C30.564,324.267,0,293.703,0,256c0-37.703,30.564-68.267,68.267-68.267
			s68.267,30.564,68.267,68.267C136.49,293.685,105.951,324.224,68.267,324.267L68.267,324.267z M68.267,204.8
			c-28.277,0-51.2,22.923-51.2,51.2s22.923,51.2,51.2,51.2s51.2-22.923,51.2-51.2C119.436,227.736,96.531,204.831,68.267,204.8
			L68.267,204.8z"/>
		<path style="fill:#428DFF;" d="M443.733,324.267c-37.703,0-68.267-30.564-68.267-68.267c0-37.703,30.564-68.267,68.267-68.267
			S512,218.297,512,256C511.957,293.685,481.418,324.224,443.733,324.267L443.733,324.267z M443.733,204.8
			c-28.277,0-51.2,22.923-51.2,51.2s22.923,51.2,51.2,51.2c28.277,0,51.2-22.923,51.2-51.2
			C494.902,227.736,471.998,204.831,443.733,204.8L443.733,204.8z"/>
		<path style="fill:#428DFF;" d="M256,324.267c-37.703,0-68.267-30.564-68.267-68.267c0-37.703,30.564-68.267,68.267-68.267
			c37.703,0,68.267,30.564,68.267,68.267C324.224,293.685,293.685,324.224,256,324.267L256,324.267z M256,204.8
			c-28.277,0-51.2,22.923-51.2,51.2s22.923,51.2,51.2,51.2c28.277,0,51.2-22.923,51.2-51.2
			C307.169,227.736,284.264,204.831,256,204.8L256,204.8z"/>
	</g>
</g>
<g>
</g>
<g>
</g>
<g>
</g>
<g>
</g>
<g>
</g>
<g>
</g>
<g>
</g>
<g>
</g>
<g>
</g>
<g>
</g>
<g>
</g>
<g>
</g>
<g>
</g>
<g>
</g>
<g>
</g>
</svg>
