<?xml version="1.0" encoding="iso-8859-1"?>
<!-- Generator: Adobe Illustrator 19.0.0, SVG Export Plug-In . SVG Version: 6.00 Build 0)  -->
<svg version="1.1" id="Capa_1" xmlns="http://www.w3.org/2000/svg" xmlns:xlink="http://www.w3.org/1999/xlink" x="0px" y="0px"
	 viewBox="0 0 512 512" style="enable-background:new 0 0 512 512;" xml:space="preserve">
<g>
	<g>
		<circle style="fill:#A4C2F7;" cx="256" cy="68.267" r="59.733"/>
		<circle style="fill:#A4C2F7;" cx="256" cy="443.733" r="59.733"/>
		<circle style="fill:#A4C2F7;" cx="256" cy="256" r="59.733"/>
	</g>
	<ellipse style="fill:#E3E7F2;" cx="243.2" cy="68.267" rx="46.933" ry="59.733"/>
	<path style="fill:#FFFFFF;" d="M256,128c2.396-0.013,4.789-0.17,7.167-0.469c-23.258-3.549-41.299-28.705-41.299-59.263
		c0-30.56,18.042-55.717,41.303-59.264c-22.036-2.673-43.737,7.097-56.343,25.368c-12.606,18.271-14.038,42.027-3.716,61.679
		C213.432,115.703,233.802,128.008,256,128L256,128z"/>
	<g>
		<ellipse style="fill:#E3E7F2;" cx="243.2" cy="443.733" rx="46.933" ry="59.733"/>
		<ellipse style="fill:#E3E7F2;" cx="243.2" cy="256" rx="46.933" ry="59.733"/>
	</g>
	<g>
		<path style="fill:#FFFFFF;" d="M256,315.733c2.396-0.013,4.789-0.17,7.167-0.47c-23.258-3.548-41.299-28.705-41.299-59.263
			c0-30.56,18.042-55.717,41.303-59.264c-22.035-2.671-43.733,7.101-56.338,25.371c-12.605,18.27-14.036,42.024-3.716,61.675
			S233.804,315.739,256,315.733L256,315.733z"/>
		<path style="fill:#FFFFFF;" d="M256,503.467c2.396-0.013,4.789-0.17,7.167-0.47c-23.258-3.549-41.299-28.705-41.299-59.263
			c0-30.56,18.042-55.717,41.303-59.264c-22.036-2.672-43.735,7.099-56.34,25.369c-12.605,18.27-14.037,42.025-3.716,61.677
			C213.434,491.168,233.803,503.474,256,503.467L256,503.467z"/>
	</g>
	<g>
		<path style="fill:#428DFF;" d="M256,136.533c-37.703,0-68.267-30.564-68.267-68.267S218.297,0,256,0
			c37.703,0,68.267,30.564,68.267,68.267C324.224,105.951,293.685,136.49,256,136.533z M256,17.067c-28.277,0-51.2,22.923-51.2,51.2
			s22.923,51.2,51.2,51.2s51.2-22.923,51.2-51.2C307.169,40.002,284.264,17.098,256,17.067L256,17.067z"/>
		<path style="fill:#428DFF;" d="M256,512c-37.703,0-68.267-30.564-68.267-68.267s30.564-68.267,68.267-68.267
			c37.703,0,68.267,30.564,68.267,68.267C324.224,481.418,293.685,511.957,256,512L256,512z M256,392.533
			c-28.277,0-51.2,22.923-51.2,51.2c0,28.277,22.923,51.2,51.2,51.2s51.2-22.923,51.2-51.2
			C307.169,415.469,284.264,392.564,256,392.533L256,392.533z"/>
		<path style="fill:#428DFF;" d="M256,324.267c-37.703,0-68.267-30.564-68.267-68.267c0-37.703,30.564-68.267,68.267-68.267
			c37.703,0,68.267,30.564,68.267,68.267C324.224,293.685,293.685,324.224,256,324.267L256,324.267z M256,204.8
			c-28.277,0-51.2,22.923-51.2,51.2c0,28.277,22.923,51.2,51.2,51.2s51.2-22.923,51.2-51.2
			C307.169,227.736,284.264,204.831,256,204.8L256,204.8z"/>
	</g>
</g>
<g>
</g>
<g>
</g>
<g>
</g>
<g>
</g>
<g>
</g>
<g>
</g>
<g>
</g>
<g>
</g>
<g>
</g>
<g>
</g>
<g>
</g>
<g>
</g>
<g>
</g>
<g>
</g>
<g>
</g>
</svg>
